<?xml version="1.0" encoding="utf-8"?>
<!-- Generator: Adobe Illustrator 16.0.3, SVG Export Plug-In . SVG Version: 6.00 Build 0)  -->
<!DOCTYPE svg PUBLIC "-//W3C//DTD SVG 1.0//EN" "http://www.w3.org/TR/2001/REC-SVG-20010904/DTD/svg10.dtd">
<svg version="1.0" id="Capa_1" xmlns="http://www.w3.org/2000/svg" xmlns:xlink="http://www.w3.org/1999/xlink" x="0px" y="0px"
	 width="368px" height="69px" viewBox="0 0 368 69" enable-background="new 0 0 368 69" xml:space="preserve">
<g>
	<rect x="-4.953" y="-15.214" fill="none" width="76.19" height="103.174"/>
	<path fill="#FFFFFF" d="M60.327,65.664l-58.56-24v-13.56l58.56-23.88v13.56l-42.6,17.16l42.6,17.16V65.664z"/>
</g>
<g>
	<rect x="301.834" y="-15.214" fill="none" width="79" height="103.174"/>
	<path fill="#FFFFFF" d="M308.555,65.664v-13.56l42.6-17.16l-42.6-17.16V4.224l58.559,23.88v13.56L308.555,65.664z"/>
</g>
<g>
	<rect x="275.333" y="5.914" fill="none" width="39.5" height="71.918"/>
	<path fill="#FFFFFF" d="M304.923,4.798l-17.771,62.381h-11.354l17.887-62.381H304.923z"/>
</g>
<g>
</g>
<g>
	<path fill="#FFFFFF" d="M88.072,33.396c-1.992,0-3.87-0.252-5.634-0.756c-1.764-0.504-3.234-1.188-4.41-2.052l1.62-4.392
		c1.128,0.792,2.417,1.417,3.87,1.872c1.452,0.457,2.97,0.684,4.554,0.684c1.728,0,2.97-0.27,3.726-0.81s1.134-1.218,1.134-2.034
		c0-0.696-0.264-1.248-0.792-1.656c-0.528-0.408-1.452-0.756-2.772-1.044L85.3,22.344c-4.536-0.96-6.804-3.312-6.804-7.056
		c0-1.608,0.432-3.018,1.296-4.23c0.864-1.212,2.07-2.154,3.618-2.826c1.548-0.671,3.342-1.008,5.382-1.008
		c1.751,0,3.396,0.252,4.932,0.756c1.536,0.504,2.808,1.212,3.816,2.124l-1.62,4.104c-1.968-1.56-4.356-2.34-7.164-2.34
		c-1.512,0-2.682,0.294-3.51,0.882c-0.828,0.588-1.242,1.35-1.242,2.286c0,0.696,0.252,1.26,0.756,1.692s1.38,0.78,2.628,1.044
		l4.068,0.864c4.656,1.008,6.984,3.288,6.984,6.84c0,1.584-0.426,2.97-1.278,4.158s-2.052,2.112-3.6,2.772
		C92.014,33.066,90.184,33.396,88.072,33.396z"/>
	<path fill="#FFFFFF" d="M98.909,33l11.664-25.38h4.5L126.736,33h-5.616l-2.376-5.508H106.9L104.561,33H98.909z M112.769,13.56
		l-3.996,9.576h8.136l-4.068-9.576H112.769z"/>
	<path fill="#FFFFFF" d="M128.932,33V7.62h4.14l12.672,16.164V7.62h5.184V33h-4.104l-12.708-16.2V33H128.932z"/>
	<path fill="#FFFFFF" d="M162.087,33V12.228h-8.388V7.62h22.356v4.608h-8.389V33H162.087z"/>
	<path fill="#FFFFFF" d="M178.791,33V7.62h5.58V33H178.791z"/>
	<path fill="#FFFFFF" d="M186.53,33l11.664-25.38h4.5L214.358,33h-5.616l-2.376-5.508h-11.844L192.183,33H186.53z M200.391,13.56
		l-3.996,9.576h8.136l-4.067-9.576H200.391z"/>
	<path fill="#FFFFFF" d="M228.507,33.396c-2.856,0-5.274-0.54-7.254-1.62c-1.98-1.08-3.486-2.592-4.519-4.536
		c-1.032-1.944-1.548-4.224-1.548-6.84c0-2.688,0.534-5.016,1.603-6.984c1.067-1.968,2.609-3.492,4.626-4.572
		c2.016-1.08,4.439-1.62,7.271-1.62c1.776,0,3.462,0.252,5.059,0.756c1.596,0.504,2.897,1.176,3.905,2.016l-1.8,4.356
		c-1.104-0.816-2.231-1.398-3.384-1.746c-1.152-0.348-2.4-0.522-3.744-0.522c-2.568,0-4.494,0.714-5.778,2.142
		c-1.284,1.428-1.926,3.486-1.926,6.174c0,2.712,0.653,4.765,1.962,6.156c1.308,1.392,3.246,2.088,5.814,2.088
		c1.368,0,2.808-0.216,4.319-0.648v-4.968h-5.472v-4.032h10.08v12.456c-1.248,0.624-2.688,1.104-4.32,1.44
		S230.139,33.396,228.507,33.396z"/>
	<path fill="#FFFFFF" d="M254.427,33.396c-2.496,0-4.687-0.545-6.57-1.638c-1.884-1.092-3.348-2.615-4.392-4.572
		c-1.044-1.956-1.566-4.253-1.566-6.894c0-2.64,0.522-4.938,1.566-6.894c1.044-1.956,2.502-3.474,4.374-4.554
		c1.872-1.08,4.067-1.62,6.588-1.62c2.52,0,4.722,0.54,6.605,1.62c1.884,1.08,3.349,2.598,4.393,4.554
		c1.044,1.957,1.565,4.242,1.565,6.858c0,2.641-0.521,4.944-1.565,6.912c-1.044,1.968-2.509,3.498-4.393,4.59
		C259.148,32.851,256.946,33.396,254.427,33.396z M254.427,28.644c2.111,0,3.762-0.738,4.95-2.214
		c1.188-1.476,1.781-3.522,1.781-6.138c0-2.64-0.588-4.686-1.764-6.138c-1.176-1.452-2.832-2.178-4.968-2.178
		c-2.088,0-3.727,0.726-4.914,2.178c-1.188,1.453-1.782,3.499-1.782,6.138c0,2.616,0.594,4.662,1.782,6.138
		C250.7,27.906,252.339,28.644,254.427,28.644z"/>
</g>
<g>
	<path fill="#FFFFFF" d="M111.334,63V37.619h11.628c2.712,0,4.806,0.589,6.282,1.764c1.476,1.177,2.214,2.785,2.214,4.824
		c0,1.345-0.336,2.502-1.008,3.475c-0.672,0.972-1.608,1.698-2.808,2.178c1.44,0.408,2.55,1.129,3.33,2.16
		c0.78,1.032,1.17,2.305,1.17,3.816c0,2.256-0.786,4.014-2.358,5.273c-1.572,1.26-3.714,1.891-6.426,1.891H111.334z M116.662,48.06
		h5.328c2.736,0,4.104-1.056,4.104-3.168c0-2.088-1.368-3.132-4.104-3.132h-5.328V48.06z M116.662,58.859h5.94
		c1.44,0,2.496-0.275,3.168-0.828c0.671-0.552,1.008-1.392,1.008-2.52c0-1.104-0.336-1.932-1.008-2.484
		c-0.672-0.552-1.728-0.828-3.168-0.828h-5.94V58.859z"/>
	<path fill="#FFFFFF" d="M133.331,63l11.664-25.381h4.5L161.158,63h-5.616l-2.376-5.508h-11.844L138.982,63H133.331z M147.19,43.56
		l-3.996,9.576h8.136l-4.068-9.576H147.19z"/>
	<path fill="#FFFFFF" d="M163.354,63V37.619h11.592c2.832,0,5.016,0.685,6.552,2.053c1.535,1.367,2.304,3.275,2.304,5.724
		c0,1.896-0.486,3.474-1.458,4.733c-0.972,1.261-2.358,2.119-4.158,2.574c1.271,0.385,2.315,1.309,3.132,2.772L185.422,63h-6.156
		l-4.392-8.101c-0.36-0.647-0.805-1.099-1.332-1.351c-0.528-0.252-1.152-0.377-1.872-0.377h-2.736V63H163.354z M168.934,49.14h5.004
		c3,0,4.5-1.2,4.5-3.601c0-2.375-1.5-3.563-4.5-3.563h-5.004V49.14z"/>
	<path fill="#FFFFFF" d="M200.003,63.396c-2.496,0-4.687-0.546-6.57-1.638s-3.348-2.615-4.392-4.572
		c-1.044-1.956-1.566-4.254-1.566-6.895c0-2.639,0.522-4.938,1.566-6.894s2.502-3.474,4.374-4.554s4.067-1.62,6.588-1.62
		c2.52,0,4.722,0.54,6.605,1.62s3.349,2.598,4.393,4.554s1.565,4.242,1.565,6.858c0,2.641-0.521,4.943-1.565,6.912
		c-1.044,1.968-2.509,3.498-4.393,4.59S202.522,63.396,200.003,63.396z M200.003,58.644c2.111,0,3.762-0.738,4.95-2.214
		c1.188-1.477,1.781-3.521,1.781-6.139c0-2.639-0.588-4.686-1.764-6.138s-2.832-2.178-4.968-2.178c-2.088,0-3.727,0.726-4.914,2.178
		c-1.188,1.452-1.782,3.499-1.782,6.138c0,2.617,0.594,4.662,1.782,6.139C196.276,57.905,197.915,58.644,200.003,58.644z"/>
	<path fill="#FFFFFF" d="M216.886,63V37.619h4.141l12.672,16.164V37.619h5.184V63h-4.104L222.07,46.799V63H216.886z"/>
</g>
<g>
</g>
<g>
</g>
<g>
</g>
<g>
</g>
<g>
</g>
<g>
</g>
</svg>
